<svg width="32" height="32" viewBox="0 0 32 32" fill="none" xmlns="http://www.w3.org/2000/svg">
<path d="M3.99999 29.3333H28C28.3536 29.3333 28.6928 29.1929 28.9428 28.9428C29.1929 28.6928 29.3333 28.3536 29.3333 28V22.6667C29.3333 22.313 29.1929 21.9739 28.9428 21.7239C28.6928 21.4738 28.3536 21.3333 28 21.3333H26.6667V14.6667H28C28.3536 14.6667 28.6928 14.5262 28.9428 14.2761C29.1929 14.0261 29.3333 13.687 29.3333 13.3333V9.33334C29.3334 9.07536 29.2585 8.82292 29.118 8.60661C28.9774 8.3903 28.7771 8.21941 28.5413 8.11467L16.5413 2.78134C16.3709 2.70562 16.1865 2.6665 16 2.6665C15.8135 2.6665 15.6291 2.70562 15.4587 2.78134L3.45866 8.11467C3.2229 8.21941 3.02259 8.3903 2.88201 8.60661C2.74143 8.82292 2.66662 9.07536 2.66666 9.33334V13.3333C2.66666 13.687 2.80713 14.0261 3.05718 14.2761C3.30723 14.5262 3.64637 14.6667 3.99999 14.6667H5.33332V21.3333H3.99999C3.64637 21.3333 3.30723 21.4738 3.05718 21.7239C2.80713 21.9739 2.66666 22.313 2.66666 22.6667V28C2.66666 28.3536 2.80713 28.6928 3.05718 28.9428C3.30723 29.1929 3.64637 29.3333 3.99999 29.3333ZM5.33332 10.2L16 5.45867L26.6667 10.2V12H5.33332V10.2ZM24 14.6667V21.3333H20.444V14.6667H24ZM17.7773 14.6667V21.3333H14.2227V14.6667H17.7773ZM11.556 14.6667V21.3333H7.99999V14.6667H11.556ZM5.33332 24H26.6667V26.6667H5.33332V24Z" fill="#705700"/>
<path d="M18.6667 9.33333C18.6667 9.68695 18.5262 10.0261 18.2762 10.2761C18.0261 10.5262 17.687 10.6667 17.3333 10.6667H14.6667C14.3131 10.6667 13.9739 10.5262 13.7239 10.2761C13.4738 10.0261 13.3333 9.68695 13.3333 9.33333C13.3333 8.97971 13.4738 8.64057 13.7239 8.39052C13.9739 8.14048 14.3131 8 14.6667 8H17.3333C17.687 8 18.0261 8.14048 18.2762 8.39052C18.5262 8.64057 18.6667 8.97971 18.6667 9.33333Z" fill="#E5B201"/>
</svg>
