<svg width="32" height="32" viewBox="0 0 32 32" fill="none" xmlns="http://www.w3.org/2000/svg">
<path d="M27.6133 8.39992L20.9467 1.73325H20.94C20.6847 1.49158 20.3511 1.34963 20 1.33325H5.33333C4.97971 1.33325 4.64057 1.47373 4.39052 1.72378C4.14048 1.97382 4 2.31296 4 2.66659V29.3333C4 29.6869 4.14048 30.026 4.39052 30.2761C4.64057 30.5261 4.97971 30.6666 5.33333 30.6666H26.6667C27.0203 30.6666 27.3594 30.5261 27.6095 30.2761C27.8595 30.026 28 29.6869 28 29.3333V9.33325C27.9879 8.98568 27.8506 8.65419 27.6133 8.39992ZM25.3333 27.9999H6.66667V3.99992H18.6667V9.33325C18.6667 9.68687 18.8071 10.026 19.0572 10.2761C19.3072 10.5261 19.6464 10.6666 20 10.6666H25.3333V27.9999Z" fill="#705700"/>
<path d="M20.9427 13.724C21.1926 13.974 21.333 14.3131 21.333 14.6667C21.333 15.0202 21.1926 15.3593 20.9427 15.6093L15.6093 20.9427C15.3741 21.1778 15.0594 21.3165 14.7271 21.3316C14.3948 21.3466 14.0689 21.2369 13.8133 21.024L11.1467 18.8027C10.8749 18.5764 10.7042 18.2514 10.6721 17.8992C10.6399 17.547 10.749 17.1964 10.9753 16.9247C11.2017 16.6529 11.5267 16.4822 11.8788 16.4501C12.231 16.4179 12.5816 16.527 12.8533 16.7533L14.5867 18.196L19.06 13.724C19.3099 13.4749 19.6484 13.335 20.0013 13.335C20.3542 13.335 20.6927 13.4749 20.9427 13.724Z" fill="#E5B201"/>
</svg>
