<svg width="32" height="32" viewBox="0 0 32 32" fill="none" xmlns="http://www.w3.org/2000/svg">
<path d="M27.9893 13.3067C27.9935 11.7324 27.6876 10.1727 27.089 8.71662C26.4905 7.26056 25.611 5.93666 24.5007 4.8205C22.2586 2.56631 19.2127 1.29515 16.0333 1.28666C12.8539 1.27818 9.80135 2.53306 7.54716 4.77524C5.29297 7.01743 4.02181 10.0632 4.01333 13.2427C3.98517 16.9363 5.0574 20.5547 7.09337 23.6367C9.12934 26.7186 12.0368 29.1246 15.4453 30.548C15.6196 30.6269 15.8087 30.6673 16 30.6667C16.1926 30.667 16.3831 30.6261 16.5587 30.5467C19.9568 29.1276 22.8571 26.7317 24.892 23.6625C26.927 20.5933 28.005 16.9891 27.9893 13.3067ZM16 27.8667C13.1892 26.6292 10.8057 24.5905 9.14755 22.0055C7.48938 19.4206 6.63015 16.4041 6.67733 13.3333C6.67733 12.1091 6.91847 10.8968 7.38697 9.7657C7.85548 8.63462 8.54218 7.6069 9.40787 6.74121C10.2736 5.87552 11.3013 5.18882 12.4324 4.72031C13.5634 4.2518 14.7757 4.01066 16 4.01066C17.2243 4.01066 18.4365 4.2518 19.5676 4.72031C20.6987 5.18882 21.7264 5.87552 22.5921 6.74121C23.4578 7.6069 24.1445 8.63462 24.613 9.7657C25.0815 10.8968 25.3227 12.1091 25.3227 13.3333C25.3227 13.3613 25.3227 13.3933 25.3227 13.42C25.355 16.4765 24.4886 19.4752 22.8312 22.0436C21.1738 24.612 18.7984 26.6368 16 27.8667Z" fill="#705700"/>
<path d="M18.6666 13.3332C18.6666 13.8606 18.5102 14.3762 18.2172 14.8147C17.9242 15.2532 17.5077 15.595 17.0205 15.7968C16.5332 15.9987 15.997 16.0515 15.4797 15.9486C14.9625 15.8457 14.4873 15.5917 14.1144 15.2188C13.7414 14.8458 13.4874 14.3707 13.3846 13.8534C13.2817 13.3361 13.3345 12.8 13.5363 12.3127C13.7381 11.8254 14.0799 11.4089 14.5185 11.1159C14.957 10.8229 15.4726 10.6665 16 10.6665C16.7072 10.6665 17.3855 10.9475 17.8856 11.4476C18.3857 11.9477 18.6666 12.6259 18.6666 13.3332Z" fill="#E5B201"/>
</svg>
