<svg width="148" height="48" viewBox="0 0 148 48" fill="none" xmlns="http://www.w3.org/2000/svg">
<path d="M58.6421 18.5045C58.6421 16.5253 60.2385 14.9304 62.2195 14.9304H74.1633C74.1633 16.9096 72.567 18.5045 70.5859 18.5045H68.4318V35.6062C66.1815 35.6062 64.3736 33.7807 64.3736 31.5517V18.5045H58.6421Z" fill="#67737E"/>
<path d="M82.2225 23.8079L81.2416 25.3644C80.8762 24.9609 80.4723 24.615 80.0299 24.3075C79.5876 24.0001 79.1452 23.8464 78.7028 23.8464C78.4528 23.8464 78.2028 23.904 77.9143 24.0193C77.6258 24.1346 77.3565 24.3075 77.1065 24.5766C76.8564 24.8264 76.6449 25.1722 76.4718 25.595C76.2987 26.0177 76.2217 26.5365 76.2217 27.1514V35.587C74.1638 35.587 72.4905 33.9152 72.4905 31.8592V24.3652C72.4905 22.3091 74.1638 20.6374 76.2217 20.6374V22.2323C76.6641 21.5982 77.1642 21.0986 77.7027 20.7527C78.2412 20.4068 78.8567 20.2339 79.5299 20.2339C80.1838 20.2339 80.8377 20.4068 81.4532 20.7719C81.4532 20.7719 81.4724 20.7719 81.4724 20.7911C82.5302 21.406 82.8572 22.7895 82.2225 23.8079Z" fill="#67737E"/>
<path d="M99.3786 27.7279C99.3786 27.9777 99.3594 28.2275 99.3401 28.4773L99.2632 29.2843H87.2809C87.4155 29.7071 87.6078 30.1298 87.8579 30.5141C88.1079 30.8984 88.4156 31.2443 88.7811 31.5325C89.1465 31.8208 89.5504 32.0321 90.012 32.2051C90.4736 32.378 90.9737 32.4549 91.5314 32.4549C92.2046 32.4549 92.8777 32.3396 93.5509 32.109H93.5702C94.7434 31.7055 96.0512 31.9745 96.9167 32.8584L97.5899 33.5309C96.5513 34.2995 95.5319 34.8568 94.551 35.1834C93.5509 35.5101 92.5123 35.6638 91.3968 35.6638C90.2813 35.6638 89.2234 35.4525 88.2425 35.0489C87.2616 34.6262 86.4154 34.069 85.7037 33.358C84.9921 32.647 84.4151 31.8208 84.0112 30.86C83.6073 29.8992 83.3958 28.8808 83.3958 27.7855C83.3958 26.6903 83.6073 25.6718 84.0112 24.7111C84.4151 23.7503 84.9921 22.924 85.723 22.2131C86.4538 21.5021 87.3001 20.9449 88.2618 20.5221C89.2234 20.0994 90.262 19.9072 91.3776 19.9072C92.4354 19.9072 93.4355 20.0994 94.4164 20.4837C95.3781 20.868 96.2436 21.406 96.9744 22.0978C97.7245 22.7895 98.3015 23.6158 98.7439 24.5766C99.167 25.5181 99.3786 26.575 99.3786 27.7279ZM95.4742 26.2675C95.1857 25.326 94.6664 24.5573 93.9163 23.9809C93.1663 23.4044 92.32 23.1162 91.3583 23.1162C90.4351 23.1162 89.5889 23.4044 88.8388 23.9809C88.0887 24.5573 87.5694 25.326 87.2809 26.2675H95.4742Z" fill="#67737E"/>
<path d="M103.648 18.9269C102.571 18.9269 101.706 18.0622 101.706 16.9862C101.706 15.9101 102.571 15.0454 103.648 15.0454C104.725 15.0454 105.591 15.9101 105.591 16.9862C105.591 18.0622 104.725 18.9269 103.648 18.9269ZM105.552 35.6059C103.456 35.6059 101.764 33.9149 101.764 31.8204V20.6179C103.86 20.6179 105.552 22.3088 105.552 24.4033V35.6059Z" fill="#67737E"/>
<path d="M122.593 35.6062C120.535 35.6062 118.862 33.9344 118.862 31.8784V26.6902C118.862 26.1522 118.785 25.691 118.612 25.2875C118.439 24.884 118.227 24.5381 117.958 24.2691C117.689 24.0001 117.362 23.8079 117.015 23.6734C116.669 23.5389 116.285 23.4813 115.919 23.4813C115.342 23.4813 114.784 23.5773 114.227 23.7695C113.669 23.9616 113.169 24.2883 112.726 24.711V35.6062C110.669 35.6062 108.995 33.9344 108.995 31.8784V20.6566H111.611C112.226 20.6566 112.746 21.1562 112.746 21.7711C112.977 21.5405 113.246 21.3483 113.573 21.1562C113.9 20.964 114.246 20.8103 114.592 20.6758C114.938 20.5413 115.304 20.4452 115.688 20.3876C116.054 20.3107 116.419 20.2915 116.765 20.2915C117.516 20.2915 118.246 20.4068 118.958 20.6566C119.65 20.9064 120.285 21.2715 120.824 21.7711C121.362 22.2707 121.805 22.924 122.132 23.7118C122.459 24.4997 122.632 25.4412 122.632 26.5365V35.6062H122.593Z" fill="#67737E"/>
<path d="M147.962 35.2215H145.038C144.596 35.2215 144.23 34.8564 144.23 34.4145C143.576 34.8564 142.884 35.1831 142.153 35.3368C141.422 35.5097 140.672 35.5866 139.884 35.5866C139.153 35.5866 138.499 35.4713 137.922 35.2599C137.326 35.0486 136.825 34.7411 136.402 34.3376C135.979 33.9341 135.633 33.4537 135.402 32.8964C135.171 32.3392 135.056 31.7243 135.056 31.0518C135.056 30.2063 135.248 29.4761 135.614 28.842C135.979 28.2079 136.499 27.6891 137.133 27.2663C137.768 26.8436 138.518 26.5361 139.364 26.3248C140.211 26.1134 141.134 26.0173 142.115 26.0173H144.269C144.269 25.1334 143.98 24.4417 143.422 23.9229C142.846 23.404 142.038 23.1542 140.961 23.1542C140.441 23.1542 139.903 23.2503 139.364 23.4425H139.345C138.153 23.8652 136.825 23.577 135.922 22.6739L135.498 22.2511C136.287 21.5017 137.21 20.906 138.249 20.4833C139.287 20.0606 140.364 19.8684 141.48 19.8684C142.519 19.8684 143.442 20.0413 144.25 20.368C145.057 20.6947 145.711 21.1174 146.211 21.6362C146.865 22.2895 147.327 23.0197 147.596 23.8268C147.865 24.6338 148 25.6715 148 26.9397V35.2215H147.962ZM144.23 31.4937V28.7267H142.519C141.999 28.7267 141.518 28.7651 141.057 28.8228C140.595 28.8996 140.211 29.0149 139.864 29.1686C139.518 29.3416 139.268 29.553 139.057 29.8028C138.864 30.0526 138.768 30.3792 138.768 30.7251C138.768 31.2439 138.98 31.6667 139.384 31.9933C139.787 32.32 140.307 32.4929 140.941 32.4929C141.499 32.4929 142.038 32.416 142.595 32.2431C143.134 32.0702 143.673 31.8204 144.23 31.4937Z" fill="#67737E"/>
<path d="M125.401 20.7718L125.382 18.4852C125.363 17.044 126.536 15.8911 127.959 15.8911H129.171V20.2722H132.96V21.4828C132.96 22.6741 131.998 23.6349 130.806 23.6349H129.171V30.4372C129.171 30.8215 129.209 31.1289 129.306 31.3595C129.402 31.6093 129.517 31.7822 129.69 31.936C129.844 32.0705 130.017 32.1665 130.229 32.2242C130.421 32.2818 130.633 32.3011 130.863 32.3011C131.152 32.3011 131.517 32.2434 131.921 32.1473C132.344 32.0512 132.691 31.8783 132.979 31.6285V34.6261C132.979 34.8183 132.864 34.9912 132.691 35.0873C132.383 35.241 132.037 35.3755 131.652 35.4716C131.152 35.5869 130.652 35.6445 130.152 35.6445C129.267 35.6445 128.536 35.5292 127.921 35.3179C127.325 35.1065 126.824 34.7798 126.478 34.3187C126.113 33.8767 125.844 33.3002 125.69 32.6085C125.517 31.9167 125.44 31.1097 125.44 30.1681V25.5372L125.42 23.6157L125.401 20.7718Z" fill="#67737E"/>
<path d="M39.7215 48H8.27851C3.72629 48 0 44.2722 0 39.7182V8.28182C0 3.72778 3.72629 0 8.27851 0H39.7215C44.2737 0 48 3.72778 48 8.28182V39.7182C47.9808 44.2722 44.2737 48 39.7215 48Z" fill="url(#paint0_linear_380_9525)"/>
<path d="M29.3692 41.467C31.2706 41.467 32.812 39.9271 32.812 38.0274C32.812 36.1278 31.2706 34.5879 29.3692 34.5879C27.4678 34.5879 25.9265 36.1278 25.9265 38.0274C25.9265 39.9271 27.4678 41.467 29.3692 41.467Z" fill="white"/>
<path d="M23.9454 15.1032V14.3922V11.3946V6.32178C19.1563 6.32178 15.252 10.2033 15.252 15.0071V15.1032V16.602V32.9927C15.252 37.7773 19.1371 41.6781 23.9454 41.6781V27.6508V23.9038C28.8114 23.9038 32.7542 19.9647 32.7542 15.1032H23.9454Z" fill="white"/>
<defs>
<linearGradient id="paint0_linear_380_9525" x1="38.8663" y1="49.7661" x2="9.11204" y2="-1.74912" gradientUnits="userSpaceOnUse">
<stop stop-color="#FADC71"/>
<stop offset="1" stop-color="#FECB18"/>
</linearGradient>
</defs>
</svg>
