<svg width="16" height="16" viewBox="0 0 16 16" fill="none" xmlns="http://www.w3.org/2000/svg">
<path d="M7.99984 0.666748C6.54944 0.666748 5.13162 1.09684 3.92566 1.90264C2.7197 2.70843 1.77977 3.85374 1.22472 5.19374C0.669681 6.53373 0.524457 8.00822 0.807415 9.43074C1.09037 10.8533 1.78881 12.1599 2.81439 13.1855C3.83998 14.2111 5.14665 14.9095 6.56918 15.1925C7.99171 15.4755 9.4662 15.3302 10.8062 14.7752C12.1462 14.2202 13.2915 13.2802 14.0973 12.0743C14.9031 10.8683 15.3332 9.45048 15.3332 8.00008C15.3309 6.05586 14.5575 4.19193 13.1828 2.81716C11.808 1.4424 9.94406 0.669042 7.99984 0.666748ZM7.99984 14.0001C6.7588 13.9712 5.55267 13.5836 4.52717 12.8841C4.96483 12.3966 5.50024 12.0066 6.09856 11.7397C6.69687 11.4728 7.34469 11.3348 7.99984 11.3348C8.655 11.3348 9.30281 11.4728 9.90113 11.7397C10.4994 12.0066 11.0349 12.3966 11.4725 12.8841C10.4555 13.6009 9.24401 13.9903 7.99984 14.0001ZM12.4625 11.9961C11.901 11.3681 11.2132 10.8657 10.4442 10.5218C9.6752 10.1778 8.84227 10 7.99984 10C7.15742 10 6.32448 10.1778 5.55547 10.5218C4.78647 10.8657 4.09872 11.3681 3.53717 11.9961C2.76216 11.1337 2.25361 10.0652 2.07305 8.91992C1.89248 7.7746 2.04763 6.6015 2.51972 5.54251C2.99182 4.48351 3.76064 3.58398 4.7332 2.95272C5.70575 2.32147 6.84038 1.98552 7.99984 1.98552C9.1593 1.98552 10.2939 2.32147 11.2665 2.95272C12.239 3.58398 13.0079 4.48351 13.48 5.54251C13.9521 6.6015 14.1072 7.7746 13.9266 8.91992C13.7461 10.0652 13.2375 11.1337 12.4625 11.9961ZM7.99984 4.00008C7.47242 4.00008 6.95685 4.15648 6.51832 4.4495C6.07979 4.74251 5.738 5.15899 5.53616 5.64626C5.33433 6.13353 5.28152 6.66971 5.38441 7.18699C5.48731 7.70427 5.74128 8.17943 6.11422 8.55237C6.48716 8.92531 6.96232 9.17928 7.4796 9.28218C7.99688 9.38507 8.53306 9.33226 9.02033 9.13043C9.5076 8.92859 9.92408 8.5868 10.2171 8.14827C10.5101 7.70974 10.6665 7.19416 10.6665 6.66675C10.6665 5.9595 10.3856 5.28123 9.88546 4.78113C9.38536 4.28103 8.70709 4.00008 7.99984 4.00008ZM7.99984 8.00008C7.73613 8.00008 7.47835 7.92188 7.25908 7.77537C7.03982 7.62887 6.86892 7.42063 6.768 7.17699C6.66708 6.93336 6.64068 6.66527 6.69213 6.40663C6.74357 6.14799 6.87056 5.91041 7.05703 5.72394C7.2435 5.53747 7.48108 5.41048 7.73972 5.35903C7.99836 5.30759 8.26645 5.33399 8.51009 5.43491C8.75372 5.53583 8.96196 5.70672 9.10847 5.92599C9.25498 6.14525 9.33317 6.40304 9.33317 6.66675C9.33317 7.02037 9.1927 7.35951 8.94265 7.60956C8.6926 7.8596 8.35346 8.00008 7.99984 8.00008Z" fill="#3D2F00"/>
</svg>
