<svg width="32" height="32" viewBox="0 0 32 32" fill="none" xmlns="http://www.w3.org/2000/svg">
<path d="M5.33334 9.33333C5.33334 10.3882 5.64614 11.4193 6.23217 12.2964C6.81821 13.1734 7.65116 13.857 8.6257 14.2607C9.60024 14.6644 10.6726 14.77 11.7072 14.5642C12.7417 14.3584 13.692 13.8505 14.4379 13.1046C15.1838 12.3587 15.6917 11.4084 15.8975 10.3738C16.1033 9.33925 15.9977 8.26689 15.594 7.29236C15.1904 6.31782 14.5068 5.48486 13.6297 4.89883C12.7527 4.31279 11.7215 4 10.6667 4C9.25219 4 7.89563 4.5619 6.89544 5.5621C5.89525 6.56229 5.33334 7.91885 5.33334 9.33333ZM13.3333 9.33333C13.3333 9.86075 13.1769 10.3763 12.8839 10.8149C12.5909 11.2534 12.1744 11.5952 11.6872 11.797C11.1999 11.9988 10.6637 12.0517 10.1464 11.9488C9.62915 11.8459 9.154 11.5919 8.78106 11.219C8.40812 10.846 8.15414 10.3709 8.05125 9.85357C7.94835 9.33629 8.00116 8.80011 8.203 8.31284C8.40483 7.82557 8.74662 7.4091 9.18516 7.11608C9.62369 6.82306 10.1393 6.66667 10.6667 6.66667C11.3739 6.66667 12.0522 6.94762 12.5523 7.44772C13.0524 7.94781 13.3333 8.62609 13.3333 9.33333ZM2.66668 28H18.6667C19.0203 28 19.3594 27.8595 19.6095 27.6095C19.8595 27.3594 20 27.0203 20 26.6667V22.6667C20 21.2522 19.4381 19.8956 18.4379 18.8954C17.4377 17.8952 16.0812 17.3333 14.6667 17.3333H6.66668C5.25219 17.3333 3.89563 17.8952 2.89544 18.8954C1.89525 19.8956 1.33334 21.2522 1.33334 22.6667V26.6667C1.33334 27.0203 1.47382 27.3594 1.72387 27.6095C1.97392 27.8595 2.31305 28 2.66668 28ZM4.00001 22.6667C4.00001 21.9594 4.28096 21.2811 4.78106 20.781C5.28116 20.281 5.95943 20 6.66668 20H14.6667C15.3739 20 16.0522 20.281 16.5523 20.781C17.0524 21.2811 17.3333 21.9594 17.3333 22.6667V25.3333H4.00001V22.6667Z" fill="#705700"/>
<path d="M30.6667 5.33333C30.6667 5.68696 30.5262 6.02609 30.2761 6.27614C30.0261 6.52619 29.687 6.66667 29.3333 6.66667H21.3333C20.9797 6.66667 20.6406 6.52619 20.3905 6.27614C20.1405 6.02609 20 5.68696 20 5.33333C20 4.97971 20.1405 4.64057 20.3905 4.39052C20.6406 4.14048 20.9797 4 21.3333 4H29.3333C29.687 4 30.0261 4.14048 30.2761 4.39052C30.5262 4.64057 30.6667 4.97971 30.6667 5.33333ZM30.6667 10.6667C30.6667 11.0203 30.5262 11.3594 30.2761 11.6095C30.0261 11.8595 29.687 12 29.3333 12H21.3333C20.9797 12 20.6406 11.8595 20.3905 11.6095C20.1405 11.3594 20 11.0203 20 10.6667C20 10.313 20.1405 9.97391 20.3905 9.72386C20.6406 9.47381 20.9797 9.33333 21.3333 9.33333H29.3333C29.687 9.33333 30.0261 9.47381 30.2761 9.72386C30.5262 9.97391 30.6667 10.313 30.6667 10.6667ZM30.6667 16C30.6667 16.3536 30.5262 16.6928 30.2761 16.9428C30.0261 17.1929 29.687 17.3333 29.3333 17.3333H21.3333C20.9797 17.3333 20.6406 17.1929 20.3905 16.9428C20.1405 16.6928 20 16.3536 20 16C20 15.6464 20.1405 15.3072 20.3905 15.0572C20.6406 14.8071 20.9797 14.6667 21.3333 14.6667H29.3333C29.687 14.6667 30.0261 14.8071 30.2761 15.0572C30.5262 15.3072 30.6667 15.6464 30.6667 16Z" fill="#E5B201"/>
</svg>
