<svg width="52" height="42" viewBox="0 0 52 42" fill="none" xmlns="http://www.w3.org/2000/svg">
<path d="M28.3334 23.3333V33.8333C28.3334 34.4522 28.0875 35.0457 27.6499 35.4832C27.2124 35.9208 26.6189 36.1667 26 36.1667C25.3812 36.1667 24.7877 35.9208 24.3501 35.4832C23.9125 35.0457 23.6667 34.4522 23.6667 33.8333V23.3333C23.6667 22.7145 23.9125 22.121 24.3501 21.6834C24.7877 21.2458 25.3812 21 26 21C26.6189 21 27.2124 21.2458 27.6499 21.6834C28.0875 22.121 28.3334 22.7145 28.3334 23.3333ZM26 18.6667C26.4615 18.6667 26.9126 18.5298 27.2964 18.2734C27.6801 18.017 27.9791 17.6526 28.1558 17.2263C28.3324 16.7999 28.3786 16.3307 28.2885 15.8781C28.1985 15.4255 27.9763 15.0097 27.6499 14.6834C27.3236 14.3571 26.9079 14.1349 26.4552 14.0448C26.0026 13.9548 25.5335 14.001 25.1071 14.1776C24.6807 14.3542 24.3163 14.6533 24.0599 15.037C23.8035 15.4207 23.6667 15.8718 23.6667 16.3333C23.6667 16.9522 23.9125 17.5457 24.3501 17.9832C24.7877 18.4208 25.3812 18.6667 26 18.6667ZM0.625034 40.7983C0.423143 40.4339 0.32251 40.022 0.333589 39.6056C0.344668 39.1891 0.467053 38.7832 0.688034 38.43L24.0214 1.09667C24.2451 0.778442 24.5421 0.518717 24.8872 0.339422C25.2324 0.160128 25.6157 0.0665283 26.0047 0.0665283C26.3937 0.0665283 26.777 0.160128 27.1222 0.339422C27.4674 0.518717 27.7643 0.778442 27.988 1.09667L51.3214 38.43C51.5425 38.7839 51.6648 39.1906 51.6753 39.6078C51.6858 40.0249 51.5843 40.4373 51.3813 40.8019C51.1783 41.1665 50.8812 41.4699 50.521 41.6807C50.1608 41.8914 49.7507 42.0017 49.3334 42H2.6667C2.2501 42.0002 1.84105 41.8889 1.48202 41.6775C1.12299 41.4662 0.827084 41.1627 0.625034 40.7983ZM6.8667 37.3333H45.1334L26 6.73633L6.8667 37.3333Z" fill="#F2930D"/>
</svg>
